<svg version="1.1" id="Layer_1" xmlns="http://www.w3.org/2000/svg" xmlns:xlink="http://www.w3.org/1999/xlink" x="0px" y="0px"
	 width="100%" viewBox="0 0 500 500" enable-background="new 0 0 500 500" xml:space="preserve">
<path fill="#000000" opacity="1.000000" stroke="none" 
	d="
M250.000000,501.000000 
	C166.666687,501.000000 83.833374,501.000000 1.000044,501.000000 
	C1.000030,334.333405 1.000030,167.666779 1.000015,1.000134 
	C167.666565,1.000089 334.333130,1.000089 500.999756,1.000045 
	C500.999847,167.666519 500.999847,334.333038 500.999939,500.999786 
	C417.500000,501.000000 334.000000,501.000000 250.000000,501.000000 
M154.500000,162.998962 
	C136.403732,162.998962 118.307457,162.998962 100.287262,162.998962 
	C100.287262,223.311615 100.287262,283.048309 100.287262,342.713257 
	C181.645126,342.713257 262.714355,342.713257 343.712708,342.713257 
	C343.712708,282.688385 343.712708,222.951675 343.712708,162.998962 
	C280.783112,162.998962 218.141556,162.998962 154.500000,162.998962 
z"/>
<path fill="#FEFFFF" opacity="1.000000" stroke="none" 
	d="
M155.000000,162.998962 
	C218.141556,162.998962 280.783112,162.998962 343.712708,162.998962 
	C343.712708,222.951675 343.712708,282.688385 343.712708,342.713257 
	C262.714355,342.713257 181.645126,342.713257 100.287262,342.713257 
	C100.287262,283.048309 100.287262,223.311615 100.287262,162.998962 
	C118.307457,162.998962 136.403732,162.998962 155.000000,162.998962 
M181.044601,225.439896 
	C183.153198,224.531754 185.372253,223.808716 187.326889,222.642517 
	C188.410980,221.995667 189.053284,220.608353 189.894699,219.554779 
	C188.676743,219.177109 187.217880,218.174927 186.284485,218.534958 
	C183.055878,219.780365 179.751663,221.139664 176.966003,223.138275 
	C174.044327,225.234451 172.281784,224.955063 169.821030,222.421448 
	C160.653183,212.982086 151.192810,203.827209 141.998795,194.412643 
	C140.243988,192.615707 139.463898,189.877838 137.740967,188.035217 
	C136.451965,186.656693 134.447647,185.648300 132.597580,185.262085 
	C131.984985,185.134201 129.927673,187.714142 130.172256,188.605896 
	C130.623947,190.252747 132.128967,191.746521 133.499069,192.961304 
	C134.534302,193.879181 136.327164,193.974655 137.296646,194.929703 
	C147.620941,205.100342 157.809937,215.408325 168.132736,225.580490 
	C170.292282,227.708542 169.716904,229.053406 168.290344,231.483704 
	C165.720749,235.861252 163.338287,240.609680 162.246780,245.508240 
	C161.427338,249.185822 160.173706,250.138245 156.775879,250.094467 
	C146.449341,249.961319 136.113922,250.258331 125.794136,249.962601 
	C120.110306,249.799744 114.460625,248.643112 108.773758,248.249802 
	C107.340630,248.150681 104.870789,248.945389 104.556831,249.888443 
	C104.013832,251.519470 104.378036,253.797394 105.192177,255.375504 
	C105.546722,256.062775 107.998436,255.962143 109.421791,255.737778 
	C111.786888,255.364960 114.084663,254.115662 116.421410,254.086517 
	C129.746124,253.920303 143.073990,253.995697 156.400742,254.018280 
	C158.148727,254.021240 159.896423,254.192215 161.644241,254.285370 
	C161.189041,254.705811 160.733841,255.126236 160.278625,255.546677 
	C163.027878,261.439575 165.612579,267.417908 168.606842,273.183563 
	C169.815872,275.511627 169.790039,276.909851 167.873001,278.760773 
	C161.522278,284.892395 155.548157,291.426636 149.031631,297.370117 
	C143.488861,302.425476 139.608002,309.447174 131.813187,312.016235 
	C130.649948,312.399597 129.241272,315.344543 129.665588,316.436005 
	C130.249924,317.939056 132.467987,319.674835 133.992844,319.681122 
	C135.311111,319.686523 136.842773,317.567230 137.910141,316.115204 
	C139.218796,314.334930 139.847397,312.008148 141.295273,310.386688 
	C144.150543,307.189178 147.386490,304.333679 150.431458,301.303070 
	C157.937286,293.832733 165.424164,286.343353 172.408997,279.370361 
	C178.368149,282.334351 183.607468,284.940308 189.190292,287.717102 
	C189.748840,282.952454 189.774796,282.877869 186.526505,281.747772 
	C175.079895,277.765442 168.121338,269.408722 166.234299,257.904297 
	C164.055054,244.618362 168.492142,233.334595 181.044601,225.439896 
M203.329956,261.696106 
	C203.329956,259.570770 203.329956,257.445435 203.329956,255.320099 
	C203.579056,255.264175 203.828171,255.208267 204.077271,255.152359 
	C205.414749,261.348419 206.752228,267.544495 208.077759,273.685181 
	C211.167999,273.685181 213.909668,273.685181 216.706985,273.685181 
	C216.706985,258.466003 216.706985,243.567627 216.706985,228.603729 
	C213.704590,228.603729 211.008987,228.603729 208.008606,228.603729 
	C208.008606,234.106033 208.008606,239.189438 208.008606,244.272858 
	C207.755844,244.308105 207.503082,244.343353 207.250320,244.378601 
	C206.070862,239.001495 204.891403,233.624390 203.781189,228.562943 
	C200.371582,228.562943 197.630310,228.562943 194.688385,228.562943 
	C194.688385,243.844360 194.688385,258.742981 194.688385,273.736572 
	C197.600784,273.736572 200.196365,273.736572 203.330353,273.736572 
	C203.330353,269.868469 203.330353,266.251556 203.329956,261.696106 
M322.312469,253.383591 
	C322.710297,260.094208 323.108124,266.804840 323.516022,273.685242 
	C326.340393,273.685242 329.060089,273.685242 331.834900,273.685242 
	C331.834900,258.461975 331.834900,243.561676 331.834900,228.585083 
	C328.787811,228.585083 326.082672,228.585083 323.080688,228.585083 
	C323.080688,232.639053 323.277313,236.304825 322.991425,239.932571 
	C322.863190,241.559692 321.768890,243.110672 321.112976,244.696198 
	C320.387848,243.182175 319.158264,241.707352 319.037018,240.146439 
	C318.735046,236.258408 318.937592,232.331207 318.937592,228.510254 
	C315.482300,228.510254 312.889313,228.510254 310.149078,228.510254 
	C310.149078,243.747177 310.149078,258.651611 310.149078,273.659363 
	C313.164886,273.659363 315.879059,273.659363 318.938232,273.659363 
	C318.938232,267.845337 318.785126,262.365143 319.052338,256.905518 
	C319.114441,255.636658 320.607880,254.437881 322.312469,253.383591 
M287.871826,273.057892 
	C298.987579,276.762451 305.003052,272.358398 305.048462,260.752380 
	C305.072418,254.633896 301.769348,250.539322 297.704956,246.627472 
	C295.579376,244.581696 293.658539,242.279984 291.948425,239.877991 
	C291.551605,239.320602 292.392120,237.882324 292.663300,236.849380 
	C293.390717,237.060471 294.685486,237.148727 294.761688,237.500809 
	C296.256866,244.406891 301.107483,240.115936 305.224792,241.402924 
	C304.474213,238.168900 304.228821,235.833054 303.386383,233.737183 
	C301.385590,228.759201 297.111450,227.782196 292.300110,227.969681 
	C287.777710,228.145920 284.556519,230.344452 283.389252,234.638519 
	C281.976471,239.835892 282.372131,244.905884 286.491211,249.039627 
	C288.724640,251.281021 291.290192,253.290298 293.081055,255.842712 
	C294.520752,257.894684 295.239594,260.556671 295.801697,263.055176 
	C295.965485,263.783081 294.491791,264.879333 293.768677,265.806763 
	C293.128326,264.970062 292.108368,264.207642 291.927063,263.281128 
	C291.554932,261.379395 291.632141,259.389740 291.517670,257.314453 
	C288.463989,257.314453 285.749023,257.314453 282.831238,257.314453 
	C282.876465,263.103546 281.762268,268.790558 287.871826,273.057892 
M259.856689,234.605927 
	C259.856689,247.557098 259.856689,260.508270 259.856689,273.644897 
	C266.375214,273.644897 272.408661,273.644897 278.490967,273.644897 
	C278.490967,270.690643 278.490967,268.109375 278.490967,265.302521 
	C275.290680,265.127686 272.373535,264.968292 269.338196,264.802460 
	C269.338196,261.386658 269.338196,258.311676 269.338196,255.053436 
	C272.197113,254.855362 274.782135,254.676270 277.535004,254.485535 
	C277.535004,251.576843 277.535004,249.010147 277.535004,246.230087 
	C274.665680,246.068893 272.077789,245.923508 269.438080,245.775208 
	C269.438080,242.747726 269.438080,240.046951 269.438080,237.276154 
	C272.423492,237.122635 275.024261,236.988907 277.796936,236.846329 
	C277.796936,233.922852 277.796936,231.338806 277.796936,228.476013 
	C271.827667,228.476013 266.102081,228.476013 259.856598,228.476013 
	C259.856598,230.394684 259.856598,232.017609 259.856689,234.605927 
M241.017670,273.186432 
	C243.832626,273.523743 246.647583,273.861084 249.931671,274.254608 
	C249.931671,261.492828 249.931671,249.590302 249.931671,237.508102 
	C251.828598,237.179001 253.374725,236.910767 254.830597,236.658173 
	C254.830597,233.753632 254.830597,231.186859 254.830597,228.606476 
	C248.120224,228.606476 241.767502,228.606476 235.515106,228.606476 
	C235.515106,231.618896 235.515106,234.192947 235.515106,236.693176 
	C237.450882,237.022583 239.015594,237.288834 240.847809,237.600616 
	C240.847809,249.352554 240.847809,260.801300 241.017670,273.186432 
M222.186874,239.526459 
	C222.186874,250.937897 222.186874,262.349335 222.186874,273.692566 
	C225.572784,273.692566 228.160706,273.692566 230.808060,273.692566 
	C230.808060,258.468048 230.808060,243.569595 230.808060,228.621429 
	C227.805374,228.621429 225.123932,228.621429 222.187057,228.621429 
	C222.187057,232.231079 222.187057,235.384430 222.186874,239.526459 
M144.533005,295.038330 
	C148.175034,291.390564 151.919662,287.836334 155.388962,284.031097 
	C156.287048,283.046051 157.070038,280.962219 156.632675,279.914764 
	C153.791000,273.109436 150.597855,266.450897 147.222107,259.095703 
	C146.816772,259.095703 145.496689,259.208649 144.201279,259.077637 
	C134.758621,258.122650 125.044464,261.230713 115.754494,257.100555 
	C114.857910,256.701965 112.364456,258.022766 111.845123,259.125824 
	C111.207565,260.479950 111.322227,262.811554 112.140862,264.027954 
	C112.779243,264.976501 115.037567,265.275574 116.488213,265.107086 
	C117.817802,264.952728 119.016640,263.190430 120.295845,263.162048 
	C128.719131,262.975098 137.148590,263.065552 144.794083,263.065552 
	C147.561478,269.661011 149.988434,275.445160 152.699524,281.906433 
	C145.096771,287.211548 140.866501,297.073639 130.833389,300.578888 
	C129.779770,300.946991 129.011749,303.599609 129.066589,305.158722 
	C129.103256,306.201721 130.827011,308.003204 131.803436,308.008301 
	C133.361618,308.016479 136.138229,307.007507 136.286118,306.088501 
	C137.087997,301.105469 141.175323,298.823120 144.533005,295.038330 
M190.028076,312.515686 
	C190.027298,309.519928 190.218079,306.505615 189.930344,303.537659 
	C189.817154,302.370300 188.881882,300.688721 187.899078,300.295319 
	C181.182907,297.607117 174.354492,295.199341 165.930511,292.100983 
	C165.604568,292.576935 164.770325,294.590851 163.287094,295.824554 
	C156.518890,301.454224 152.292892,310.059937 143.177795,313.019562 
	C142.446915,313.256866 141.717087,315.481354 142.022705,316.458344 
	C142.472153,317.895081 143.880814,320.095612 144.834488,320.072296 
	C146.440903,320.033051 148.304504,318.782227 149.506317,317.515686 
	C150.526825,316.440216 150.395111,314.273071 151.414047,313.194122 
	C156.211075,308.114410 161.145935,303.154480 166.248474,298.383698 
	C167.111847,297.576447 169.226700,297.370392 170.435181,297.803070 
	C174.639145,299.308258 178.606949,301.500671 182.845856,302.870880 
	C185.642105,303.774780 186.393692,305.194855 186.325562,307.908142 
	C186.171005,314.062225 186.366653,320.224609 186.243805,326.380096 
	C186.169785,330.088989 185.765121,333.791321 185.453888,338.294312 
	C187.380997,337.928467 190.146362,338.186951 191.040344,337.016296 
	C191.958389,335.814178 191.131424,333.206512 190.910019,331.231659 
	C190.749863,329.803101 190.105774,328.409180 190.070007,326.989960 
	C189.956848,322.499146 190.028137,318.003723 190.028076,312.515686 
M129.380112,198.272308 
	C127.953308,202.052322 129.067612,204.366104 133.190231,205.095139 
	C134.103699,205.256653 135.141251,205.628540 135.786804,206.250900 
	C141.632126,211.886307 147.403015,217.598953 152.715683,222.817474 
	C150.334702,228.563110 147.945129,233.355621 146.409378,238.407684 
	C145.515549,241.348114 144.146027,241.946793 141.482361,241.860382 
	C136.823013,241.709213 132.131439,242.107407 127.498566,241.726089 
	C123.876930,241.427979 120.350479,240.071564 116.727615,239.644150 
	C115.173920,239.460846 112.687157,239.961456 112.054352,241.012390 
	C111.249664,242.348816 111.290077,244.938995 112.120712,246.265793 
	C112.722176,247.226517 115.258606,247.437958 116.831879,247.228897 
	C119.815079,246.832458 122.707031,245.393234 125.671204,245.279221 
	C133.287399,244.986267 140.922379,245.181320 147.630264,245.181320 
	C151.049377,237.127792 154.128906,229.874115 157.170929,222.708786 
	C151.981110,217.415771 146.509506,212.052826 141.322647,206.427338 
	C139.507111,204.458282 138.260666,201.912720 136.989304,199.506287 
	C135.235809,196.187225 133.124893,194.994019 129.380112,198.272308 
M186.267548,193.403854 
	C185.430252,196.063339 188.270340,199.770294 183.696472,201.402023 
	C178.408768,203.288422 173.240448,205.509476 166.678192,208.118927 
	C161.251816,201.541000 155.379074,194.331207 149.351746,187.253021 
	C148.734833,186.528549 147.019867,186.090271 146.115784,186.399689 
	C144.443695,186.971985 142.994797,188.196396 141.452942,189.149185 
	C142.370163,190.175385 143.146957,191.393295 144.233078,192.188934 
	C146.695602,193.992874 149.600662,195.277222 151.806061,197.330963 
	C157.262283,202.411942 162.426605,207.806381 167.110519,212.478668 
	C175.015213,209.182449 182.307709,206.141510 190.084854,202.898468 
	C190.084854,198.837524 189.841400,194.171738 190.146179,189.542023 
	C190.531097,183.695312 191.198746,177.853653 192.059601,172.056625 
	C192.633652,168.190887 191.609665,166.969238 187.596420,167.410110 
	C186.740540,169.435837 185.245987,171.342178 185.259979,173.237350 
	C185.307266,179.637451 185.889938,186.033585 186.267548,193.403854 
z"/>
<path fill="#C0F3FA" opacity="1.000000" stroke="none" 
	d="
M180.717926,225.620041 
	C168.492142,233.334595 164.055054,244.618362 166.234299,257.904297 
	C168.121338,269.408722 175.079895,277.765442 186.526505,281.747772 
	C189.774796,282.877869 189.748840,282.952454 189.190292,287.717102 
	C183.607468,284.940308 178.368149,282.334351 172.408997,279.370361 
	C165.424164,286.343353 157.937286,293.832733 150.431458,301.303070 
	C147.386490,304.333679 144.150543,307.189178 141.295273,310.386688 
	C139.847397,312.008148 139.218796,314.334930 137.910141,316.115204 
	C136.842773,317.567230 135.311111,319.686523 133.992844,319.681122 
	C132.467987,319.674835 130.249924,317.939056 129.665588,316.436005 
	C129.241272,315.344543 130.649948,312.399597 131.813187,312.016235 
	C139.608002,309.447174 143.488861,302.425476 149.031631,297.370117 
	C155.548157,291.426636 161.522278,284.892395 167.873001,278.760773 
	C169.790039,276.909851 169.815872,275.511627 168.606842,273.183563 
	C165.612579,267.417908 163.027878,261.439575 160.278625,255.546677 
	C160.733841,255.126236 161.189041,254.705811 161.644241,254.285370 
	C159.896423,254.192215 158.148727,254.021240 156.400742,254.018280 
	C143.073990,253.995697 129.746124,253.920303 116.421410,254.086517 
	C114.084663,254.115662 111.786888,255.364960 109.421791,255.737778 
	C107.998436,255.962143 105.546722,256.062775 105.192177,255.375504 
	C104.378036,253.797394 104.013832,251.519470 104.556831,249.888443 
	C104.870789,248.945389 107.340630,248.150681 108.773758,248.249802 
	C114.460625,248.643112 120.110306,249.799744 125.794136,249.962601 
	C136.113922,250.258331 146.449341,249.961319 156.775879,250.094467 
	C160.173706,250.138245 161.427338,249.185822 162.246780,245.508240 
	C163.338287,240.609680 165.720749,235.861252 168.290344,231.483704 
	C169.716904,229.053406 170.292282,227.708542 168.132736,225.580490 
	C157.809937,215.408325 147.620941,205.100342 137.296646,194.929703 
	C136.327164,193.974655 134.534302,193.879181 133.499069,192.961304 
	C132.128967,191.746521 130.623947,190.252747 130.172256,188.605896 
	C129.927673,187.714142 131.984985,185.134201 132.597580,185.262085 
	C134.447647,185.648300 136.451965,186.656693 137.740967,188.035217 
	C139.463898,189.877838 140.243988,192.615707 141.998795,194.412643 
	C151.192810,203.827209 160.653183,212.982086 169.821030,222.421448 
	C172.281784,224.955063 174.044327,225.234451 176.966003,223.138275 
	C179.751663,221.139664 183.055878,219.780365 186.284485,218.534958 
	C187.217880,218.174927 188.676743,219.177109 189.894714,219.554779 
	C189.053284,220.608353 188.410980,221.995667 187.326889,222.642517 
	C185.372253,223.808716 183.153198,224.531754 180.717926,225.620041 
z"/>
<path fill="#22D8FE" opacity="1.000000" stroke="none" 
	d="
M203.330154,262.165405 
	C203.330353,266.251556 203.330353,269.868469 203.330353,273.736572 
	C200.196365,273.736572 197.600784,273.736572 194.688385,273.736572 
	C194.688385,258.742981 194.688385,243.844360 194.688385,228.562943 
	C197.630310,228.562943 200.371582,228.562943 203.781189,228.562943 
	C204.891403,233.624390 206.070862,239.001495 207.250320,244.378601 
	C207.503082,244.343353 207.755844,244.308105 208.008606,244.272858 
	C208.008606,239.189438 208.008606,234.106033 208.008606,228.603729 
	C211.008987,228.603729 213.704590,228.603729 216.706985,228.603729 
	C216.706985,243.567627 216.706985,258.466003 216.706985,273.685181 
	C213.909668,273.685181 211.167999,273.685181 208.077759,273.685181 
	C206.752228,267.544495 205.414749,261.348419 204.077271,255.152359 
	C203.828171,255.208267 203.579056,255.264175 203.329956,255.320099 
	C203.329956,257.445435 203.329956,259.570770 203.330154,262.165405 
z"/>
<path fill="#22D8FE" opacity="1.000000" stroke="none" 
	d="
M321.877594,253.295227 
	C320.607880,254.437881 319.114441,255.636658 319.052338,256.905518 
	C318.785126,262.365143 318.938232,267.845337 318.938232,273.659363 
	C315.879059,273.659363 313.164886,273.659363 310.149078,273.659363 
	C310.149078,258.651611 310.149078,243.747177 310.149078,228.510254 
	C312.889313,228.510254 315.482300,228.510254 318.937592,228.510254 
	C318.937592,232.331207 318.735046,236.258408 319.037018,240.146439 
	C319.158264,241.707352 320.387848,243.182175 321.112976,244.696198 
	C321.768890,243.110672 322.863190,241.559692 322.991425,239.932571 
	C323.277313,236.304825 323.080688,232.639053 323.080688,228.585083 
	C326.082672,228.585083 328.787811,228.585083 331.834900,228.585083 
	C331.834900,243.561676 331.834900,258.461975 331.834900,273.685242 
	C329.060089,273.685242 326.340393,273.685242 323.516022,273.685242 
	C323.108124,266.804840 322.710297,260.094208 321.877594,253.295227 
z"/>
<path fill="#23D8FE" opacity="1.000000" stroke="none" 
	d="
M287.509003,272.879700 
	C281.762268,268.790558 282.876465,263.103546 282.831238,257.314453 
	C285.749023,257.314453 288.463989,257.314453 291.517670,257.314453 
	C291.632141,259.389740 291.554932,261.379395 291.927063,263.281128 
	C292.108368,264.207642 293.128326,264.970062 293.768677,265.806763 
	C294.491791,264.879333 295.965485,263.783081 295.801697,263.055176 
	C295.239594,260.556671 294.520752,257.894684 293.081055,255.842712 
	C291.290192,253.290298 288.724640,251.281021 286.491211,249.039627 
	C282.372131,244.905884 281.976471,239.835892 283.389252,234.638519 
	C284.556519,230.344452 287.777710,228.145920 292.300110,227.969681 
	C297.111450,227.782196 301.385590,228.759201 303.386383,233.737183 
	C304.228821,235.833054 304.474213,238.168900 305.224792,241.402924 
	C301.107483,240.115936 296.256866,244.406891 294.761688,237.500809 
	C294.685486,237.148727 293.390717,237.060471 292.663300,236.849380 
	C292.392120,237.882324 291.551605,239.320602 291.948425,239.877991 
	C293.658539,242.279984 295.579376,244.581696 297.704956,246.627472 
	C301.769348,250.539322 305.072418,254.633896 305.048462,260.752380 
	C305.003052,272.358398 298.987579,276.762451 287.509003,272.879700 
z"/>
<path fill="#23D8FE" opacity="1.000000" stroke="none" 
	d="
M259.856628,234.123230 
	C259.856598,232.017609 259.856598,230.394684 259.856598,228.476013 
	C266.102081,228.476013 271.827667,228.476013 277.796936,228.476013 
	C277.796936,231.338806 277.796936,233.922852 277.796936,236.846329 
	C275.024261,236.988907 272.423492,237.122635 269.438080,237.276154 
	C269.438080,240.046951 269.438080,242.747726 269.438080,245.775208 
	C272.077789,245.923508 274.665680,246.068893 277.535004,246.230087 
	C277.535004,249.010147 277.535004,251.576843 277.535004,254.485535 
	C274.782135,254.676270 272.197113,254.855362 269.338196,255.053436 
	C269.338196,258.311676 269.338196,261.386658 269.338196,264.802460 
	C272.373535,264.968292 275.290680,265.127686 278.490967,265.302521 
	C278.490967,268.109375 278.490967,270.690643 278.490967,273.644897 
	C272.408661,273.644897 266.375214,273.644897 259.856689,273.644897 
	C259.856689,260.508270 259.856689,247.557098 259.856628,234.123230 
z"/>
<path fill="#24D8FE" opacity="1.000000" stroke="none" 
	d="
M240.932739,272.718262 
	C240.847809,260.801300 240.847809,249.352554 240.847809,237.600616 
	C239.015594,237.288834 237.450882,237.022583 235.515106,236.693176 
	C235.515106,234.192947 235.515106,231.618896 235.515106,228.606476 
	C241.767502,228.606476 248.120224,228.606476 254.830597,228.606476 
	C254.830597,231.186859 254.830597,233.753632 254.830597,236.658173 
	C253.374725,236.910767 251.828598,237.179001 249.931671,237.508102 
	C249.931671,249.590302 249.931671,261.492828 249.931671,274.254608 
	C246.647583,273.861084 243.832626,273.523743 240.932739,272.718262 
z"/>
<path fill="#28D9FE" opacity="1.000000" stroke="none" 
	d="
M222.186966,239.032135 
	C222.187057,235.384430 222.187057,232.231079 222.187057,228.621429 
	C225.123932,228.621429 227.805374,228.621429 230.808060,228.621429 
	C230.808060,243.569595 230.808060,258.468048 230.808060,273.692566 
	C228.160706,273.692566 225.572784,273.692566 222.186874,273.692566 
	C222.186874,262.349335 222.186874,250.937897 222.186966,239.032135 
z"/>
<path fill="#30DAFE" opacity="1.000000" stroke="none" 
	d="
M144.282532,295.289185 
	C141.175323,298.823120 137.087997,301.105469 136.286118,306.088501 
	C136.138229,307.007507 133.361618,308.016479 131.803436,308.008301 
	C130.827011,308.003204 129.103256,306.201721 129.066589,305.158722 
	C129.011749,303.599609 129.779770,300.946991 130.833389,300.578888 
	C140.866501,297.073639 145.096771,287.211548 152.699524,281.906433 
	C149.988434,275.445160 147.561478,269.661011 144.794083,263.065552 
	C137.148590,263.065552 128.719131,262.975098 120.295845,263.162048 
	C119.016640,263.190430 117.817802,264.952728 116.488213,265.107086 
	C115.037567,265.275574 112.779243,264.976501 112.140862,264.027954 
	C111.322227,262.811554 111.207565,260.479950 111.845123,259.125824 
	C112.364456,258.022766 114.857910,256.701965 115.754494,257.100555 
	C125.044464,261.230713 134.758621,258.122650 144.201279,259.077637 
	C145.496689,259.208649 146.816772,259.095703 147.222107,259.095703 
	C150.597855,266.450897 153.791000,273.109436 156.632675,279.914764 
	C157.070038,280.962219 156.287048,283.046051 155.388962,284.031097 
	C151.919662,287.836334 148.175034,291.390564 144.282532,295.289185 
z"/>
<path fill="#2DDAFE" opacity="1.000000" stroke="none" 
	d="
M190.028076,313.012878 
	C190.028137,318.003723 189.956848,322.499146 190.070007,326.989960 
	C190.105774,328.409180 190.749863,329.803101 190.910019,331.231659 
	C191.131424,333.206512 191.958389,335.814178 191.040344,337.016296 
	C190.146362,338.186951 187.380997,337.928467 185.453888,338.294312 
	C185.765121,333.791321 186.169785,330.088989 186.243805,326.380096 
	C186.366653,320.224609 186.171005,314.062225 186.325562,307.908142 
	C186.393692,305.194855 185.642105,303.774780 182.845856,302.870880 
	C178.606949,301.500671 174.639145,299.308258 170.435181,297.803070 
	C169.226700,297.370392 167.111847,297.576447 166.248474,298.383698 
	C161.145935,303.154480 156.211075,308.114410 151.414047,313.194122 
	C150.395111,314.273071 150.526825,316.440216 149.506317,317.515686 
	C148.304504,318.782227 146.440903,320.033051 144.834488,320.072296 
	C143.880814,320.095612 142.472153,317.895081 142.022705,316.458344 
	C141.717087,315.481354 142.446915,313.256866 143.177795,313.019562 
	C152.292892,310.059937 156.518890,301.454224 163.287094,295.824554 
	C164.770325,294.590851 165.604568,292.576935 165.930511,292.100983 
	C174.354492,295.199341 181.182907,297.607117 187.899078,300.295319 
	C188.881882,300.688721 189.817154,302.370300 189.930344,303.537659 
	C190.218079,306.505615 190.027298,309.519928 190.028076,313.012878 
z"/>
<path fill="#2EDAFE" opacity="1.000000" stroke="none" 
	d="
M129.651245,197.988220 
	C133.124893,194.994019 135.235809,196.187225 136.989304,199.506287 
	C138.260666,201.912720 139.507111,204.458282 141.322647,206.427338 
	C146.509506,212.052826 151.981110,217.415771 157.170929,222.708786 
	C154.128906,229.874115 151.049377,237.127792 147.630264,245.181320 
	C140.922379,245.181320 133.287399,244.986267 125.671204,245.279221 
	C122.707031,245.393234 119.815079,246.832458 116.831879,247.228897 
	C115.258606,247.437958 112.722176,247.226517 112.120712,246.265793 
	C111.290077,244.938995 111.249664,242.348816 112.054352,241.012390 
	C112.687157,239.961456 115.173920,239.460846 116.727615,239.644150 
	C120.350479,240.071564 123.876930,241.427979 127.498566,241.726089 
	C132.131439,242.107407 136.823013,241.709213 141.482361,241.860382 
	C144.146027,241.946793 145.515549,241.348114 146.409378,238.407684 
	C147.945129,233.355621 150.334702,228.563110 152.715683,222.817474 
	C147.403015,217.598953 141.632126,211.886307 135.786804,206.250900 
	C135.141251,205.628540 134.103699,205.256653 133.190231,205.095139 
	C129.067612,204.366104 127.953308,202.052322 129.651245,197.988220 
z"/>
<path fill="#30DAFE" opacity="1.000000" stroke="none" 
	d="
M186.267731,192.917542 
	C185.889938,186.033585 185.307266,179.637451 185.259979,173.237350 
	C185.245987,171.342178 186.740540,169.435837 187.596420,167.410110 
	C191.609665,166.969238 192.633652,168.190887 192.059601,172.056625 
	C191.198746,177.853653 190.531097,183.695312 190.146179,189.542023 
	C189.841400,194.171738 190.084854,198.837524 190.084854,202.898468 
	C182.307709,206.141510 175.015213,209.182449 167.110519,212.478668 
	C162.426605,207.806381 157.262283,202.411942 151.806061,197.330963 
	C149.600662,195.277222 146.695602,193.992874 144.233078,192.188934 
	C143.146957,191.393295 142.370163,190.175385 141.452942,189.149170 
	C142.994797,188.196396 144.443695,186.971985 146.115784,186.399689 
	C147.019867,186.090271 148.734833,186.528549 149.351746,187.253021 
	C155.379074,194.331207 161.251816,201.541000 166.678192,208.118927 
	C173.240448,205.509476 178.408768,203.288422 183.696472,201.402023 
	C188.270340,199.770294 185.430252,196.063339 186.267731,192.917542 
z"/>
</svg>